<?xml version="1.0" encoding="UTF-8" standalone="no"?>
<svg
   xmlns:dc="http://purl.org/dc/elements/1.1/"
   xmlns:cc="http://creativecommons.org/ns#"
   xmlns:rdf="http://www.w3.org/1999/02/22-rdf-syntax-ns#"
   xmlns:svg="http://www.w3.org/2000/svg"
   xmlns="http://www.w3.org/2000/svg"
   xmlns:sodipodi="http://sodipodi.sourceforge.net/DTD/sodipodi-0.dtd"
   xmlns:inkscape="http://www.inkscape.org/namespaces/inkscape"
   version="1.1"
   width="128"
   height="128"
   viewBox="0 0 128 128"
   id="svg4"
   sodipodi:docname="Icon.svg"
   inkscape:version="0.92.2 (5c3e80d, 2017-08-06)">
  <metadata
     id="metadata10">
    <rdf:RDF>
      <cc:Work
         rdf:about="">
        <dc:format>image/svg+xml</dc:format>
        <dc:type
           rdf:resource="http://purl.org/dc/dcmitype/StillImage" />
        <dc:title />
      </cc:Work>
    </rdf:RDF>
  </metadata>
  <defs
     id="defs8" />
  <sodipodi:namedview
     pagecolor="#ffffff"
     bordercolor="#666666"
     borderopacity="1"
     objecttolerance="10"
     gridtolerance="10"
     guidetolerance="10"
     inkscape:pageopacity="0"
     inkscape:pageshadow="2"
     inkscape:window-width="2610"
     inkscape:window-height="1449"
     id="namedview6"
     showgrid="false"
     inkscape:zoom="4"
     inkscape:cx="104.30593"
     inkscape:cy="40.802994"
     inkscape:window-x="1232"
     inkscape:window-y="554"
     inkscape:window-maximized="0"
     inkscape:current-layer="svg4" />
  <rect
     style="opacity:1;fill:#00b8f5;fill-opacity:1;fill-rule:evenodd;stroke:none;stroke-width:9.99999905;stroke-linecap:round;stroke-linejoin:round;stroke-miterlimit:4;stroke-dasharray:none;stroke-opacity:1"
     id="rect812"
     width="112"
     height="112"
     x="8"
     y="8.0000019"
     rx="8"
     ry="8" />
  <path
     id="path816"
     d="m 64.009718,79.4 a 15.4,15.4 0 0 1 -15.4,-15.4 15.4,15.4 0 0 1 15.4,-15.4 15.4,15.4 0 0 1 15.4,15.4 15.4,15.4 0 0 1 -15.4,15.4 m 32.692,-11.132 c 0.176,-1.408 0.308,-2.816 0.308,-4.268 0,-1.452 -0.132,-2.904 -0.308,-4.4 l 9.284002,-7.172 c 0.836,-0.66 1.056,-1.848 0.528,-2.816 L 97.713718,34.388 c -0.528,-0.968 -1.716,-1.364 -2.684,-0.968 l -10.956,4.4 c -2.288,-1.716 -4.664,-3.212 -7.436,-4.312 l -1.628,-11.66 c -0.176,-1.056 -1.1,-1.848 -2.2,-1.848 h -17.6 c -1.1,0 -2.024,0.792 -2.2,1.848 l -1.628,11.66 c -2.772,1.1 -5.148,2.596 -7.436,4.312 l -10.956,-4.4 c -0.968,-0.396 -2.156,0 -2.684,0.968 l -8.8,15.224 c -0.572,0.968 -0.308,2.156 0.528,2.816 l 9.284,7.172 c -0.176,1.496 -0.308,2.948 -0.308,4.4 0,1.452 0.132,2.86 0.308,4.268 l -9.284,7.304 c -0.836,0.66 -1.1,1.848 -0.528,2.816 l 8.8,15.224 c 0.528,0.968 1.716,1.32 2.684,0.968 l 10.956,-4.444 c 2.288,1.76 4.664,3.256 7.436,4.356 l 1.628,11.66 c 0.176,1.056 1.1,1.848 2.2,1.848 h 17.6 c 1.1,0 2.024,-0.792 2.2,-1.848 l 1.628,-11.66 c 2.772,-1.144 5.148,-2.596 7.436,-4.356 l 10.956,4.444 c 0.968,0.352 2.156,0 2.684,-0.968 l 8.800002,-15.224 c 0.528,-0.968 0.308,-2.156 -0.528,-2.816 z"
     inkscape:connector-curvature="0"
     style="fill:#ffffff;stroke-width:1" />
</svg>
